<?xml version="1.0" standalone="no"?>
<!DOCTYPE svg PUBLIC "-//W3C//DTD SVG 20010904//EN"
 "http://www.w3.org/TR/2001/REC-SVG-20010904/DTD/svg10.dtd">
<svg version="1.0" xmlns="http://www.w3.org/2000/svg"
 width="240.000000pt" height="240.000000pt" viewBox="0 0 240.000000 240.000000"
 preserveAspectRatio="xMidYMid meet">
<metadata>
Created by potrace 1.11, written by Peter Selinger 2001-2013
</metadata>
<g transform="translate(0.000000,240.000000) scale(0.100000,-0.100000)"
fill="#000000" stroke="none">
<path d="M1255 2188 c-11 -6 -65 -50 -120 -97 -55 -47 -127 -108 -160 -136
-32 -27 -79 -68 -105 -90 -39 -34 -83 -72 -180 -155 -10 -8 -68 -58 -131 -110
-172 -145 -218 -196 -272 -305 -68 -135 -88 -227 -82 -380 12 -313 211 -574
513 -675 81 -27 115 -33 203 -35 232 -6 411 68 584 242 227 227 672 688 682
707 7 11 12 32 13 44 0 28 -28 78 -49 89 -9 4 -97 10 -197 13 l-181 5 213 385
c123 221 214 395 214 410 0 49 -44 95 -94 98 -30 2 -63 -15 -378 -190 -220
-124 -380 -210 -383 -206 -3 2 0 20 5 39 5 19 11 48 14 64 3 17 13 70 22 119
17 84 16 90 0 121 -27 50 -85 69 -131 43z m-93 -844 c77 -39 152 -120 196
-211 35 -74 37 -83 37 -178 0 -83 -4 -110 -24 -160 -47 -117 -120 -197 -225
-248 -173 -85 -372 -51 -511 88 -179 178 -178 460 3 634 l56 55 11 -55 c13
-66 34 -99 84 -134 139 -96 330 24 307 192 -3 26 -2 43 5 43 5 0 33 -12 61
-26z"/>
</g>
</svg>
